<svg xmlns="http://www.w3.org/2000/svg" viewBox="0 0 120 72" role="img" aria-label="UW-Madison DoIT">
  <!-- Path wordmark (no system fonts) so <img> rendering stays reliable -->
  <g fill="#1C1A16">
    <!-- D -->
    <path d="M4 12h18c12.5 0 22 9 22 22.5S34.5 57 22 57H4V12zm14 10v25h4c6.2 0 10.5-4.8 10.5-12.5S28.2 22 22 22h-4z"/>
    <!-- o -->
    <path d="M55.5 28c9.2 0 16 6.6 16 15.5S64.7 59 55.5 59 39.5 52.4 39.5 43.5 46.3 28 55.5 28zm0 9.2c-3.8 0-6.4 2.9-6.4 6.3s2.6 6.3 6.4 6.3 6.4-2.9 6.4-6.3-2.6-6.3-6.4-6.3z"/>
    <!-- I -->
    <path d="M78 29h10v28H78V29z"/>
    <!-- T -->
    <path d="M92 29h26v9H111v19H99V38H92V29z"/>
  </g>
  <text x="4" y="68" font-family="Arial, Helvetica, sans-serif" font-size="11" font-weight="700" fill="#C5050C" letter-spacing="1.2">UW-MADISON</text>
</svg>
