<svg xmlns="http://www.w3.org/2000/svg" width="1200" height="440" viewBox="0 0 1200 440" role="img" aria-label="InfraBench — A benchmark for infrastructure agents">
  <rect width="1200" height="440" fill="#FAF9F6"/>

  <!-- Logo mark (layer bars — matches site InfraBenchLogo) -->
  <g transform="translate(48,40)">
    <rect x="0" y="2" width="36" height="5" rx="0.8" fill="#1C1A16" opacity="0.9"/>
    <rect x="0" y="12" width="36" height="5" rx="0.8" fill="#1C1A16" opacity="0.55"/>
    <rect x="0" y="22" width="15" height="5" rx="0.8" fill="#B0321C"/>
    <rect x="19.5" y="24" width="16.5" height="5" rx="0.8" fill="#B0321C" opacity="0.85"/>
    <rect x="0" y="32" width="36" height="5" rx="0.8" fill="#1C1A16" opacity="0.3"/>
  </g>
  <text x="100" y="70" font-family="IBM Plex Serif, Georgia, serif" font-size="26" font-weight="600" fill="#1C1A16">InfraBench</text>

  <text x="48" y="118" font-family="IBM Plex Mono, Consolas, monospace" font-size="12" letter-spacing="2.2" fill="#B0321C">HOTINFRA '26 — CO-LOCATED WITH ISCA '26 · RALEIGH, NC</text>

  <text x="48" y="178" font-family="IBM Plex Serif, Georgia, serif" font-size="42" font-weight="600" fill="#1C1A16">A benchmark for</text>
  <text x="48" y="228" font-family="IBM Plex Serif, Georgia, serif" font-size="42" font-weight="600" fill="#1C1A16">infrastructure agents.</text>

  <text x="48" y="268" font-family="IBM Plex Sans, Segoe UI, sans-serif" font-size="14" fill="#918B7F">Beyond Pass/Fail: Evaluating Infrastructure Agents Across Layers, Lifecycle, and Risk</text>

  <text x="48" y="304" font-family="IBM Plex Sans, Segoe UI, sans-serif" font-size="16" fill="#5D5850">Twelve real operational incidents — from IPMI power recovery to silent</text>
  <text x="48" y="328" font-family="IBM Plex Sans, Segoe UI, sans-serif" font-size="16" fill="#5D5850">data corruption — spanning hardware through user applications.</text>

  <rect x="48" y="358" width="168" height="36" rx="2" fill="#B0321C"/>
  <text x="132" y="381" text-anchor="middle" font-family="IBM Plex Sans, Segoe UI, sans-serif" font-size="13" font-weight="500" fill="#FFFFFF">View leaderboard</text>
  <text x="236" y="381" font-family="IBM Plex Mono, Consolas, monospace" font-size="13" fill="#5D5850">Paper (PDF)</text>
  <text x="370" y="381" font-family="IBM Plex Mono, Consolas, monospace" font-size="13" fill="#5D5850">Contribute a task</text>

  <!-- Right panel: task coverage (site hero) -->
  <line x1="760" y1="110" x2="760" y2="400" stroke="#E5E2D9" stroke-width="1"/>
  <text x="788" y="130" font-family="IBM Plex Mono, Consolas, monospace" font-size="10" letter-spacing="1.8" fill="#918B7F">TASK COVERAGE BY LAYER</text>

  <text x="788" y="168" font-family="IBM Plex Mono, Consolas, monospace" font-size="12" fill="#B0321C">L4</text>
  <text x="818" y="168" font-family="IBM Plex Sans, Segoe UI, sans-serif" font-size="13" fill="#1C1A16">User Applications</text>
  <text x="1128" y="168" text-anchor="end" font-family="IBM Plex Mono, Consolas, monospace" font-size="11" fill="#918B7F">3</text>
  <rect x="788" y="178" width="340" height="4" fill="#F1EFE9"/>
  <rect x="788" y="178" width="146" height="4" fill="#1C1A16" opacity="0.75"/>

  <text x="788" y="218" font-family="IBM Plex Mono, Consolas, monospace" font-size="12" fill="#B0321C">L3</text>
  <text x="818" y="218" font-family="IBM Plex Sans, Segoe UI, sans-serif" font-size="13" fill="#1C1A16">Distributed Systems</text>
  <text x="1128" y="218" text-anchor="end" font-family="IBM Plex Mono, Consolas, monospace" font-size="11" fill="#918B7F">7</text>
  <rect x="788" y="228" width="340" height="4" fill="#F1EFE9"/>
  <rect x="788" y="228" width="340" height="4" fill="#1C1A16" opacity="0.75"/>

  <text x="788" y="268" font-family="IBM Plex Mono, Consolas, monospace" font-size="12" fill="#B0321C">L2</text>
  <text x="818" y="268" font-family="IBM Plex Sans, Segoe UI, sans-serif" font-size="13" fill="#1C1A16">Local Systems</text>
  <text x="1128" y="268" text-anchor="end" font-family="IBM Plex Mono, Consolas, monospace" font-size="11" fill="#918B7F">1</text>
  <rect x="788" y="278" width="340" height="4" fill="#F1EFE9"/>
  <rect x="788" y="278" width="49" height="4" fill="#1C1A16" opacity="0.75"/>

  <text x="788" y="318" font-family="IBM Plex Mono, Consolas, monospace" font-size="12" fill="#B0321C">L1</text>
  <text x="818" y="318" font-family="IBM Plex Sans, Segoe UI, sans-serif" font-size="13" fill="#1C1A16">Hardware</text>
  <text x="1128" y="318" text-anchor="end" font-family="IBM Plex Mono, Consolas, monospace" font-size="11" fill="#918B7F">1</text>
  <rect x="788" y="328" width="340" height="4" fill="#F1EFE9"/>
  <rect x="788" y="328" width="49" height="4" fill="#1C1A16" opacity="0.75"/>

  <line x1="788" y1="356" x2="1128" y2="356" stroke="#E5E2D9" stroke-width="1"/>
  <text x="788" y="382" font-family="IBM Plex Mono, Consolas, monospace" font-size="12" fill="#5D5850">12 tasks · 11 configs · 3 backends</text>
</svg>
